<svg width="20" height="20" viewBox="0 0 20 20" fill="none" xmlns="http://www.w3.org/2000/svg">
<g opacity="0.2">
<path d="M11.3333 16.5586V11.9167H13.2318L13.53 9.99999H11.3333V8.84504C11.3333 8.04438 11.5847 7.33332 12.3333 7.33332H13.5365L13.6667 5.7578L13.657 5.75648C13.4418 5.72727 12.9654 5.66666 12.1328 5.66666C10.3675 5.66666 9.33334 6.59865 9.33334 8.72265V10.0169H7.54819V11.9336H9.33334V16.5586H11.3333Z" fill="black"/>
<mask id="path-3-inside-1" fill="white">
<path fill-rule="evenodd" clip-rule="evenodd" d="M13.3333 3.99999H6.66666C5.1939 3.99999 3.99999 5.1939 3.99999 6.66666V13.3333C3.99999 14.8061 5.1939 16 6.66666 16H13.3333C14.8061 16 16 14.8061 16 13.3333V6.66666C16 5.1939 14.8061 3.99999 13.3333 3.99999ZM6.66666 2.66666C4.45752 2.66666 2.66666 4.45752 2.66666 6.66666V13.3333C2.66666 15.5425 4.45752 17.3333 6.66666 17.3333H13.3333C15.5425 17.3333 17.3333 15.5425 17.3333 13.3333V6.66666C17.3333 4.45752 15.5425 2.66666 13.3333 2.66666H6.66666Z"/>
</mask>
<path fill-rule="evenodd" clip-rule="evenodd" d="M13.3333 3.99999H6.66666C5.1939 3.99999 3.99999 5.1939 3.99999 6.66666V13.3333C3.99999 14.8061 5.1939 16 6.66666 16H13.3333C14.8061 16 16 14.8061 16 13.3333V6.66666C16 5.1939 14.8061 3.99999 13.3333 3.99999ZM6.66666 2.66666C4.45752 2.66666 2.66666 4.45752 2.66666 6.66666V13.3333C2.66666 15.5425 4.45752 17.3333 6.66666 17.3333H13.3333C15.5425 17.3333 17.3333 15.5425 17.3333 13.3333V6.66666C17.3333 4.45752 15.5425 2.66666 13.3333 2.66666H6.66666Z" fill="black"/>
<path d="M6.66666 5.99999H13.3333V1.99999H6.66666V5.99999ZM5.99999 6.66666C5.99999 6.29847 6.29847 5.99999 6.66666 5.99999V1.99999C4.08933 1.99999 1.99999 4.08933 1.99999 6.66666H5.99999ZM5.99999 13.3333V6.66666H1.99999V13.3333H5.99999ZM6.66666 14C6.29847 14 5.99999 13.7015 5.99999 13.3333H1.99999C1.99999 15.9107 4.08933 18 6.66666 18V14ZM13.3333 14H6.66666V18H13.3333V14ZM14 13.3333C14 13.7015 13.7015 14 13.3333 14V18C15.9107 18 18 15.9107 18 13.3333H14ZM14 6.66666V13.3333H18V6.66666H14ZM13.3333 5.99999C13.7015 5.99999 14 6.29847 14 6.66666H18C18 4.08933 15.9107 1.99999 13.3333 1.99999V5.99999ZM4.66666 6.66666C4.66666 5.56209 5.56209 4.66666 6.66666 4.66666V0.666656C3.35295 0.666656 0.666656 3.35295 0.666656 6.66666H4.66666ZM4.66666 13.3333V6.66666H0.666656V13.3333H4.66666ZM6.66666 15.3333C5.56209 15.3333 4.66666 14.4379 4.66666 13.3333H0.666656C0.666656 16.647 3.35295 19.3333 6.66666 19.3333V15.3333ZM13.3333 15.3333H6.66666V19.3333H13.3333V15.3333ZM15.3333 13.3333C15.3333 14.4379 14.4379 15.3333 13.3333 15.3333V19.3333C16.647 19.3333 19.3333 16.647 19.3333 13.3333H15.3333ZM15.3333 6.66666V13.3333H19.3333V6.66666H15.3333ZM13.3333 4.66666C14.4379 4.66666 15.3333 5.56209 15.3333 6.66666H19.3333C19.3333 3.35295 16.647 0.666656 13.3333 0.666656V4.66666ZM6.66666 4.66666H13.3333V0.666656H6.66666V4.66666Z" fill="black" mask="url(#path-3-inside-1)"/>
</g>
</svg>
