<svg width="20" height="20" viewBox="0 0 20 20" fill="none" xmlns="http://www.w3.org/2000/svg">
<g opacity="0.2">
<path d="M13.9375 5.45834C13.6016 5.45834 13.3333 5.72657 13.3333 6.06251C13.3333 6.39845 13.6016 6.66668 13.9375 6.66668C14.2734 6.66668 14.5417 6.39845 14.5417 6.06251C14.5417 5.72657 14.2734 5.45834 13.9375 5.45834ZM10 6.00001C7.79948 6.00001 6 7.79949 6 10C6 12.2005 7.79948 14 10 14C12.2005 14 14 12.2005 14 10C14 7.79949 12.2005 6.00001 10 6.00001ZM10 7.33334C11.4818 7.33334 12.6667 8.51824 12.6667 10C12.6667 11.4818 11.4818 12.6667 10 12.6667C8.51823 12.6667 7.33333 11.4818 7.33333 10C7.33333 8.51824 8.51823 7.33334 10 7.33334Z" fill="black"/>
<mask id="path-3-inside-1" fill="white">
<path fill-rule="evenodd" clip-rule="evenodd" d="M13.3333 3.99999H6.66666C5.1939 3.99999 3.99999 5.1939 3.99999 6.66666V13.3333C3.99999 14.8061 5.1939 16 6.66666 16H13.3333C14.8061 16 16 14.8061 16 13.3333V6.66666C16 5.1939 14.8061 3.99999 13.3333 3.99999ZM6.66666 2.66666C4.45752 2.66666 2.66666 4.45752 2.66666 6.66666V13.3333C2.66666 15.5425 4.45752 17.3333 6.66666 17.3333H13.3333C15.5425 17.3333 17.3333 15.5425 17.3333 13.3333V6.66666C17.3333 4.45752 15.5425 2.66666 13.3333 2.66666H6.66666Z"/>
</mask>
<path fill-rule="evenodd" clip-rule="evenodd" d="M13.3333 3.99999H6.66666C5.1939 3.99999 3.99999 5.1939 3.99999 6.66666V13.3333C3.99999 14.8061 5.1939 16 6.66666 16H13.3333C14.8061 16 16 14.8061 16 13.3333V6.66666C16 5.1939 14.8061 3.99999 13.3333 3.99999ZM6.66666 2.66666C4.45752 2.66666 2.66666 4.45752 2.66666 6.66666V13.3333C2.66666 15.5425 4.45752 17.3333 6.66666 17.3333H13.3333C15.5425 17.3333 17.3333 15.5425 17.3333 13.3333V6.66666C17.3333 4.45752 15.5425 2.66666 13.3333 2.66666H6.66666Z" fill="black"/>
<path d="M6.66666 5.99999H13.3333V1.99999H6.66666V5.99999ZM5.99999 6.66666C5.99999 6.29847 6.29847 5.99999 6.66666 5.99999V1.99999C4.08933 1.99999 1.99999 4.08933 1.99999 6.66666H5.99999ZM5.99999 13.3333V6.66666H1.99999V13.3333H5.99999ZM6.66666 14C6.29847 14 5.99999 13.7015 5.99999 13.3333H1.99999C1.99999 15.9107 4.08933 18 6.66666 18V14ZM13.3333 14H6.66666V18H13.3333V14ZM14 13.3333C14 13.7015 13.7015 14 13.3333 14V18C15.9107 18 18 15.9107 18 13.3333H14ZM14 6.66666V13.3333H18V6.66666H14ZM13.3333 5.99999C13.7015 5.99999 14 6.29847 14 6.66666H18C18 4.08933 15.9107 1.99999 13.3333 1.99999V5.99999ZM4.66666 6.66666C4.66666 5.56209 5.56209 4.66666 6.66666 4.66666V0.666656C3.35295 0.666656 0.666656 3.35295 0.666656 6.66666H4.66666ZM4.66666 13.3333V6.66666H0.666656V13.3333H4.66666ZM6.66666 15.3333C5.56209 15.3333 4.66666 14.4379 4.66666 13.3333H0.666656C0.666656 16.647 3.35295 19.3333 6.66666 19.3333V15.3333ZM13.3333 15.3333H6.66666V19.3333H13.3333V15.3333ZM15.3333 13.3333C15.3333 14.4379 14.4379 15.3333 13.3333 15.3333V19.3333C16.647 19.3333 19.3333 16.647 19.3333 13.3333H15.3333ZM15.3333 6.66666V13.3333H19.3333V6.66666H15.3333ZM13.3333 4.66666C14.4379 4.66666 15.3333 5.56209 15.3333 6.66666H19.3333C19.3333 3.35295 16.647 0.666656 13.3333 0.666656V4.66666ZM6.66666 4.66666H13.3333V0.666656H6.66666V4.66666Z" fill="black" mask="url(#path-3-inside-1)"/>
</g>
</svg>
