<svg width="12" height="12" viewBox="0 0 12 12" fill="none" xmlns="http://www.w3.org/2000/svg">
<path d="M10.9453 1.42969H1.05469C0.473859 1.42969 0 1.90303 0 2.48438V9.51562C0 10.095 0.47175 10.5703 1.05469 10.5703H10.9453C11.5247 10.5703 12 10.0986 12 9.51562V2.48438C12 1.905 11.5282 1.42969 10.9453 1.42969ZM10.7997 2.13281L6.02236 6.91015L1.20373 2.13281H10.7997ZM0.703125 9.37003V2.62662L4.08935 5.9838L0.703125 9.37003ZM1.2003 9.86719L4.58866 6.47883L5.77594 7.65591C5.91337 7.79217 6.13516 7.79173 6.27204 7.65483L7.42969 6.49718L10.7997 9.86719H1.2003ZM11.2969 9.37001L7.92687 6L11.2969 2.62997V9.37001Z" fill="black"/>
</svg>
