<svg width="12" height="12" viewBox="0 0 12 12" fill="none" xmlns="http://www.w3.org/2000/svg">
<path d="M6 0C3.60363 0 1.65405 1.94958 1.65405 4.34592C1.65405 7.31986 5.54325 11.6858 5.70883 11.8702C5.86437 12.0434 6.13591 12.0431 6.29116 11.8702C6.45675 11.6858 10.3459 7.31986 10.3459 4.34592C10.3459 1.94958 8.39634 0 6 0ZM6 11.0093C4.69108 9.45448 2.43668 6.387 2.43668 4.34597C2.43668 2.38111 4.03516 0.782625 6 0.782625C7.96483 0.782625 9.56332 2.38111 9.56332 4.34595C9.56329 6.38707 7.30924 9.45398 6 11.0093Z" fill="black"/>
<path d="M5.99997 2.15936C4.7943 2.15936 3.81345 3.14025 3.81345 4.34592C3.81345 5.55159 4.79433 6.53247 5.99997 6.53247C7.20562 6.53247 8.18647 5.55159 8.18647 4.34592C8.18647 3.14025 7.20562 2.15936 5.99997 2.15936ZM5.99997 5.74985C5.22583 5.74985 4.59607 5.12006 4.59607 4.34592C4.59607 3.57178 5.22586 2.94199 5.99997 2.94199C6.77409 2.94199 7.40387 3.57178 7.40387 4.34592C7.40387 5.12006 6.77409 5.74985 5.99997 5.74985Z" fill="black"/>
</svg>
