<svg width="30" height="30" viewBox="0 0 30 30" fill="none" xmlns="http://www.w3.org/2000/svg">
<g clip-path="url(#clip0)">
<path d="M30 15C30 19.9524 26 24 21 24C16.0476 24 12 19.9524 12 15C12 10.0476 16 6 20.9524 6C26 6 30 10.0476 30 15Z" fill="#FFB600"/>
<path d="M21 6C25.9524 6 30 10.0476 30 15C30 19.9524 26 24 21 24C16.0476 24 12 19.9524 12 15" fill="#F7981D"/>
<path d="M21 6C25.9524 6 30 10.0476 30 15C30 19.9524 26 24 21 24" fill="#FF8500"/>
<path d="M8.90476 6C4 6.04762 0 10.0476 0 15C0 19.9524 4 24 9 24C11.3333 24 13.4286 23.0952 15.0476 21.6667C15.381 21.3809 15.6667 21.0476 15.9524 20.7143H14.0952C13.8571 20.4286 13.619 20.0952 13.4286 19.8095H16.619C16.8095 19.5238 17 19.1905 17.1429 18.8571H12.9048C12.7619 18.5714 12.619 18.2381 12.5238 17.9048H17.4762C17.7619 17 17.9524 16.0476 17.9524 15.0476C17.9524 14.381 17.8571 13.7619 17.7619 13.1429H12.2381C12.2857 12.8095 12.381 12.5238 12.4762 12.1905H17.4286C17.3333 11.8571 17.1905 11.5238 17.0476 11.2381H12.8571C13 10.9048 13.1905 10.619 13.381 10.2857H16.5714C16.381 9.95238 16.1429 9.61905 15.8571 9.33333H14.0952C14.381 9 14.6667 8.71429 15 8.42857C13.4286 6.95238 11.2857 6.09524 8.95238 6.09524C8.95238 6 8.95238 6 8.90476 6Z" fill="#FF5050"/>
<path d="M0 15C0 19.9524 4 24 9 24C11.3333 24 13.4286 23.0952 15.0476 21.6667C15.381 21.381 15.6667 21.0476 15.9524 20.7143H14.0952C13.8571 20.4286 13.619 20.0952 13.4286 19.8095H16.619C16.8095 19.5238 17 19.1905 17.1429 18.8571H12.9048C12.7619 18.5714 12.619 18.2381 12.5238 17.9048H17.4762C17.7619 17 17.9524 16.0476 17.9524 15.0476C17.9524 14.381 17.8571 13.7619 17.7619 13.1429H12.2381C12.2857 12.8095 12.381 12.5238 12.4762 12.1905H17.4286C17.3333 11.8572 17.1905 11.5238 17.0476 11.2381H12.8571C13 10.9048 13.1905 10.6191 13.381 10.2857H16.5714C16.381 9.95239 16.1429 9.61905 15.8571 9.33334H14.0952C14.381 9.00001 14.6667 8.71429 15 8.42858C13.4286 6.95239 11.2857 6.09525 8.95238 6.09525H8.90476" fill="#E52836"/>
<path d="M8.99999 24C11.3333 24 13.4286 23.0952 15.0476 21.6667C15.3809 21.381 15.6667 21.0476 15.9524 20.7143H14.0952C13.8571 20.4286 13.619 20.0952 13.4286 19.8095H16.619C16.8095 19.5238 17 19.1905 17.1428 18.8571H12.9048C12.7619 18.5714 12.619 18.2381 12.5238 17.9048H17.4762C17.7619 17 17.9524 16.0476 17.9524 15.0476C17.9524 14.381 17.8571 13.7619 17.7619 13.1429H12.2381C12.2857 12.8095 12.3809 12.5238 12.4762 12.1905H17.4286C17.3333 11.8572 17.1905 11.5238 17.0476 11.2381H12.8571C13 10.9048 13.1905 10.6191 13.3809 10.2857H16.5714C16.3809 9.95239 16.1428 9.61905 15.8571 9.33334H14.0952C14.3809 9.00001 14.6667 8.71429 15 8.42858C13.4286 6.95239 11.2857 6.09525 8.95237 6.09525H8.90475" fill="#CB2026"/>
<path d="M12.1906 17.2857L12.3334 16.4762C12.2858 16.4762 12.1906 16.5238 12.0953 16.5238C11.762 16.5238 11.7144 16.3333 11.762 16.2381L12.0477 14.5714H12.5715L12.7144 13.6666H12.2382L12.3334 13.0952H11.381C11.381 13.0952 10.8096 16.2381 10.8096 16.619C10.8096 17.1905 11.1429 17.4285 11.5715 17.4285C11.8572 17.4285 12.0953 17.3333 12.1906 17.2857Z" fill="white"/>
<path d="M12.5239 15.7619C12.5239 17.0952 13.4287 17.4286 14.1906 17.4286C14.9049 17.4286 15.1906 17.2857 15.1906 17.2857L15.3811 16.3809C15.3811 16.3809 14.8573 16.619 14.3811 16.619C13.3335 16.619 13.5239 15.8571 13.5239 15.8571H15.4763C15.4763 15.8571 15.6192 15.2381 15.6192 15C15.6192 14.3809 15.2858 13.619 14.2382 13.619C13.2382 13.5238 12.5239 14.5714 12.5239 15.7619ZM14.1906 14.3809C14.7144 14.3809 14.6192 15 14.6192 15.0476H13.5715C13.5715 15 13.6668 14.3809 14.1906 14.3809Z" fill="white"/>
<path d="M20.2381 17.2857L20.4286 16.2381C20.4286 16.2381 19.9524 16.4762 19.6191 16.4762C18.9524 16.4762 18.6667 15.9524 18.6667 15.3809C18.6667 14.2381 19.2381 13.619 19.9048 13.619C20.381 13.619 20.7619 13.9048 20.7619 13.9048L20.9048 12.9048C20.9048 12.9048 20.3334 12.6667 19.8096 12.6667C18.7143 12.6667 17.6191 13.619 17.6191 15.4286C17.6191 16.619 18.1905 17.4286 19.3334 17.4286C19.7143 17.4286 20.2381 17.2857 20.2381 17.2857Z" fill="white"/>
<path d="M6.95248 13.5238C6.28582 13.5238 5.80963 13.7142 5.80963 13.7142L5.66677 14.5238C5.66677 14.5238 6.09534 14.3333 6.71439 14.3333C7.04772 14.3333 7.33343 14.3809 7.33343 14.6666C7.33343 14.8571 7.28582 14.9047 7.28582 14.9047C7.28582 14.9047 7.0001 14.9047 6.85724 14.9047C6.04772 14.9047 5.14296 15.2381 5.14296 16.3333C5.14296 17.1904 5.71439 17.3809 6.04772 17.3809C6.71439 17.3809 7.0001 16.9523 7.04772 16.9523L7.0001 17.3333H7.85724L8.23819 14.7142C8.23819 13.5714 7.28582 13.5238 6.95248 13.5238ZM7.14296 15.6666C7.14296 15.8095 7.04772 16.5714 6.47629 16.5714C6.19058 16.5714 6.09534 16.3333 6.09534 16.1904C6.09534 15.9523 6.2382 15.619 6.95248 15.619C7.09534 15.6666 7.14296 15.6666 7.14296 15.6666Z" fill="white"/>
<path d="M9.14301 17.3809C9.38111 17.3809 10.5716 17.4285 10.5716 16.1428C10.5716 14.9524 9.42873 15.1905 9.42873 14.7143C9.42873 14.4762 9.6192 14.3809 9.95254 14.3809C10.0954 14.3809 10.6192 14.4285 10.6192 14.4285L10.7621 13.5714C10.7621 13.5714 10.4287 13.4762 9.8573 13.4762C9.14301 13.4762 8.42873 13.7619 8.42873 14.7143C8.42873 15.8095 9.6192 15.7143 9.6192 16.1428C9.6192 16.4285 9.28587 16.4762 9.04778 16.4762C8.6192 16.4762 8.19063 16.3333 8.19063 16.3333L8.04778 17.1904C8.09539 17.2857 8.33349 17.3809 9.14301 17.3809Z" fill="white"/>
<path d="M28.143 12.7619L27.9525 14.0476C27.9525 14.0476 27.5715 13.5714 27.0477 13.5714C26.1906 13.5714 25.4287 14.619 25.4287 15.8571C25.4287 16.619 25.8096 17.4285 26.6192 17.4285C27.1906 17.4285 27.5239 17.0476 27.5239 17.0476L27.4763 17.3809H28.4287L29.143 12.8095L28.143 12.7619ZM27.7144 15.2857C27.7144 15.8095 27.4763 16.4762 26.9525 16.4762C26.6192 16.4762 26.4287 16.1904 26.4287 15.7143C26.4287 14.9523 26.762 14.4762 27.1906 14.4762C27.5239 14.4762 27.7144 14.7143 27.7144 15.2857Z" fill="white"/>
<path d="M1.76199 17.3333L2.33341 13.9047L2.42865 17.3333H3.09532L4.33341 13.9047L3.8096 17.3333H4.8096L5.57151 12.7619H4.00008L3.0477 15.5714L3.00008 12.7619H1.61913L0.857224 17.3333H1.76199Z" fill="white"/>
<path d="M16.5239 17.3334C16.8096 15.7619 16.8572 14.4762 17.5239 14.7143C17.6191 14.0953 17.762 13.8572 17.8572 13.6191C17.8572 13.6191 17.8096 13.6191 17.6668 13.6191C17.2382 13.6191 16.9049 14.1905 16.9049 14.1905L17.0001 13.6667H16.0953L15.4763 17.381H16.5239V17.3334Z" fill="white"/>
<path d="M22.4286 13.5238C21.762 13.5238 21.2858 13.7142 21.2858 13.7142L21.1429 14.5238C21.1429 14.5238 21.5715 14.3333 22.1905 14.3333C22.5239 14.3333 22.8096 14.3809 22.8096 14.6666C22.8096 14.8571 22.762 14.9047 22.762 14.9047C22.762 14.9047 22.4763 14.9047 22.3334 14.9047C21.5239 14.9047 20.6191 15.2381 20.6191 16.3333C20.6191 17.1904 21.1905 17.3809 21.5239 17.3809C22.1905 17.3809 22.4763 16.9523 22.5239 16.9523L22.4763 17.3333H23.3334L23.7144 14.7142C23.762 13.5714 22.762 13.5238 22.4286 13.5238ZM22.6667 15.6666C22.6667 15.8095 22.5715 16.5714 22.0001 16.5714C21.7144 16.5714 21.6191 16.3333 21.6191 16.1904C21.6191 15.9523 21.762 15.619 22.4763 15.619C22.6191 15.6666 22.6191 15.6666 22.6667 15.6666Z" fill="white"/>
<path d="M24.5239 17.3334C24.8096 15.7619 24.8572 14.4762 25.5239 14.7143C25.6191 14.0953 25.762 13.8572 25.8572 13.6191C25.8572 13.6191 25.8096 13.6191 25.6667 13.6191C25.2382 13.6191 24.9048 14.1905 24.9048 14.1905L25.0001 13.6667H24.0953L23.4763 17.381H24.5239V17.3334Z" fill="white"/>
<path d="M10.7144 16.619C10.7144 17.1905 11.0477 17.4285 11.4763 17.4285C11.8096 17.4285 12.0954 17.3333 12.1906 17.2857L12.3334 16.4762C12.2858 16.4762 12.1906 16.5238 12.0954 16.5238C11.762 16.5238 11.7144 16.3333 11.762 16.2381L12.0477 14.5714H12.5715L12.7144 13.6666H12.2382L12.3334 13.0952" fill="#DCE5E5"/>
<path d="M13.0001 15.7619C13.0001 17.0952 13.4286 17.4286 14.1905 17.4286C14.9048 17.4286 15.1905 17.2857 15.1905 17.2857L15.381 16.3809C15.381 16.3809 14.8572 16.619 14.381 16.619C13.3334 16.619 13.5239 15.8571 13.5239 15.8571H15.4763C15.4763 15.8571 15.6191 15.2381 15.6191 15C15.6191 14.3809 15.2858 13.619 14.2382 13.619C13.2382 13.5238 13.0001 14.5714 13.0001 15.7619ZM14.1905 14.3809C14.7143 14.3809 14.8096 15 14.8096 15.0476H13.5715C13.5715 15 13.6667 14.3809 14.1905 14.3809Z" fill="#DCE5E5"/>
<path d="M20.2381 17.2857L20.4286 16.2381C20.4286 16.2381 19.9524 16.4762 19.619 16.4762C18.9524 16.4762 18.6667 15.9524 18.6667 15.3809C18.6667 14.2381 19.2381 13.619 19.9048 13.619C20.3809 13.619 20.7619 13.9048 20.7619 13.9048L20.9048 12.9048C20.9048 12.9048 20.3333 12.6667 19.8095 12.6667C18.7143 12.6667 18.0952 13.619 18.0952 15.4286C18.0952 16.619 18.1905 17.4286 19.3333 17.4286C19.7143 17.4286 20.2381 17.2857 20.2381 17.2857Z" fill="#DCE5E5"/>
<path d="M5.66677 14.5715C5.66677 14.5715 6.09534 14.381 6.71439 14.381C7.04772 14.381 7.33343 14.4286 7.33343 14.7143C7.33343 14.9048 7.28582 14.9524 7.28582 14.9524C7.28582 14.9524 7.0001 14.9524 6.85724 14.9524C6.04772 14.9524 5.14296 15.2857 5.14296 16.381C5.14296 17.2381 5.71439 17.4286 6.04772 17.4286C6.71439 17.4286 7.0001 17 7.04772 17L7.0001 17.381H7.85724L8.23819 14.7619C8.23819 13.6667 7.28582 13.6191 6.90486 13.6191L5.66677 14.5715ZM7.61915 15.6667C7.61915 15.8096 7.04772 16.5715 6.47629 16.5715C6.19058 16.5715 6.09534 16.3334 6.09534 16.1905C6.09534 15.9524 6.2382 15.6191 6.95248 15.6191C7.09534 15.6667 7.61915 15.6667 7.61915 15.6667Z" fill="#DCE5E5"/>
<path d="M8.09532 17.2857C8.09532 17.2857 8.38104 17.3809 9.19056 17.3809C9.42865 17.3809 10.6191 17.4285 10.6191 16.1428C10.6191 14.9524 9.47627 15.1905 9.47627 14.7143C9.47627 14.4762 9.66675 14.3809 10.0001 14.3809C10.1429 14.3809 10.6667 14.4285 10.6667 14.4285L10.8096 13.5714C10.8096 13.5714 10.4763 13.4762 9.90484 13.4762C9.19056 13.4762 8.95246 13.7619 8.95246 14.7143C8.95246 15.8095 9.66675 15.7143 9.66675 16.1428C9.66675 16.4285 9.33342 16.4762 9.09532 16.4762" fill="#DCE5E5"/>
<path d="M27.9525 14.0476C27.9525 14.0476 27.5715 13.5714 27.0477 13.5714C26.1906 13.5714 25.9049 14.619 25.9049 15.8571C25.9049 16.619 25.8096 17.4285 26.6191 17.4285C27.1906 17.4285 27.5239 17.0476 27.5239 17.0476L27.4763 17.3809H28.4287L29.1429 12.8095L27.9525 14.0476ZM27.9049 15.2857C27.9049 15.8095 27.4763 16.4761 26.9525 16.4761C26.6191 16.4761 26.4287 16.1904 26.4287 15.7142C26.4287 14.9523 26.762 14.4761 27.1906 14.4761C27.5239 14.4761 27.9049 14.7142 27.9049 15.2857Z" fill="#DCE5E5"/>
<path d="M1.76199 17.3333L2.33341 13.9047L2.42865 17.3333H3.09532L4.33341 13.9047L3.8096 17.3333H4.8096L5.57151 12.7619H4.38103L3.0477 15.5714L3.00008 12.7619H2.47627L0.857224 17.3333H1.76199Z" fill="#DCE5E5"/>
<path d="M15.5239 17.3334H16.5239C16.8097 15.7619 16.8573 14.4762 17.5239 14.7143C17.6192 14.0953 17.762 13.8572 17.8573 13.6191C17.8573 13.6191 17.8097 13.6191 17.6668 13.6191C17.2382 13.6191 16.9049 14.1905 16.9049 14.1905L17.0001 13.6667" fill="#DCE5E5"/>
<path d="M21.1429 14.5715C21.1429 14.5715 21.5715 14.381 22.1905 14.381C22.5239 14.381 22.8096 14.4286 22.8096 14.7143C22.8096 14.9048 22.762 14.9524 22.762 14.9524C22.762 14.9524 22.4763 14.9524 22.3334 14.9524C21.5239 14.9524 20.6191 15.2857 20.6191 16.381C20.6191 17.2381 21.1905 17.4286 21.5239 17.4286C22.1905 17.4286 22.4763 17 22.5239 17L22.4763 17.381H23.3334L23.7143 14.7619C23.7143 13.6667 22.762 13.6191 22.381 13.6191L21.1429 14.5715ZM23.0953 15.6667C23.0953 15.8096 22.5239 16.5715 21.9524 16.5715C21.6667 16.5715 21.5715 16.3334 21.5715 16.1905C21.5715 15.9524 21.7143 15.6191 22.4286 15.6191C22.6191 15.6667 23.0953 15.6667 23.0953 15.6667Z" fill="#DCE5E5"/>
<path d="M23.524 17.3334H24.524C24.8097 15.7619 24.8573 14.4762 25.524 14.7143C25.6192 14.0953 25.762 13.8572 25.8573 13.6191C25.8573 13.6191 25.8097 13.6191 25.6668 13.6191C25.2382 13.6191 24.9049 14.1905 24.9049 14.1905L25.0001 13.6667" fill="#DCE5E5"/>
</g>
<defs>
<clipPath id="clip0">
<rect width="30" height="30" fill="white"/>
</clipPath>
</defs>
</svg>
