<svg width="21" height="24" viewBox="0 0 21 24" fill="none" xmlns="http://www.w3.org/2000/svg">
<path d="M18.524 8.23485C18.1863 8.02441 17.7424 8.12735 17.5321 8.46485C17.3218 8.80235 17.4247 9.24627 17.7621 9.4566C18.5472 9.94623 19.0159 10.7909 19.0159 11.7162C19.0159 12.6414 18.5472 13.4861 17.7621 13.9757L5.95411 21.3382C5.12109 21.8576 4.11135 21.8832 3.25314 21.407C2.39481 20.9307 1.88238 20.0602 1.88238 19.0787V4.35353C1.88238 3.37198 2.39481 2.50153 3.25314 2.02521C4.11135 1.54902 5.12109 1.57457 5.95411 2.09396L12.828 6.37997C13.1655 6.59018 13.6094 6.48736 13.8198 6.14997C14.0301 5.81259 13.9272 5.36855 13.5898 5.15823L6.71598 0.872335C5.43268 0.0721942 3.87715 0.0324811 2.5545 0.766393C1.23221 1.50019 0.442749 2.84119 0.442749 4.35353V19.0786C0.442749 20.5909 1.23221 21.9319 2.55462 22.6657C3.18451 23.0152 3.86707 23.1893 4.54819 23.1893C5.29698 23.1893 6.04397 22.9788 6.71598 22.5598L18.524 15.1972C19.7336 14.4429 20.4557 13.1416 20.4557 11.716C20.4557 10.2905 19.7336 8.98916 18.524 8.23485Z" fill="white"/>
</svg>
