<svg width="20" height="20" viewBox="0 0 20 20" fill="none" xmlns="http://www.w3.org/2000/svg">
<path d="M10 0C4.5 0 0 4.5 0 10C0 15.5 4.5 20 10 20C15.5 20 20 15.5 20 10C20 4.5 15.5 0 10 0ZM10 3C11.7 3 13 4.3 13 6C13 7.7 11.7 9 10 9C8.3 9 7 7.7 7 6C7 4.3 8.3 3 10 3ZM10 17.2C7.5 17.2 5.3 15.9 4 14C4 12 8 10.9 10 10.9C12 10.9 16 12 16 14C14.7 15.9 12.5 17.2 10 17.2Z" fill="url(#paint0_linear)"/>
<defs>
<linearGradient id="paint0_linear" x1="0" y1="0" x2="20.7668" y2="0.830671" gradientUnits="userSpaceOnUse">
<stop stop-color="#FF7906"/>
<stop offset="1" stop-color="#FFA04E"/>
</linearGradient>
</defs>
</svg>
