<svg width="30" height="30" viewBox="0 0 30 30" fill="none" xmlns="http://www.w3.org/2000/svg">
<path d="M12.2626 10.3059L10.7569 19.6754H13.1635L14.6682 10.3059H12.2626ZM19.5217 14.1225C18.6807 13.7072 18.1651 13.4269 18.1651 13.0022C18.1754 12.616 18.6011 12.2203 19.5517 12.2203C20.3335 12.2007 20.9082 12.3844 21.3442 12.5672L21.5626 12.6647L21.8898 10.7044C21.4144 10.5206 20.6607 10.3182 19.7298 10.3182C17.3532 10.3182 15.6798 11.5538 15.6694 13.321C15.6498 14.6251 16.8675 15.3488 17.7788 15.7829C18.7098 16.2282 19.0267 16.517 19.0267 16.9126C19.0164 17.5201 18.2739 17.8004 17.5811 17.8004C16.6211 17.8004 16.1055 17.656 15.3227 17.3175L15.0058 17.1732L14.6692 19.2104C15.2346 19.4617 16.2742 19.6829 17.3533 19.6942C19.879 19.6942 21.5224 18.4773 21.5431 16.5939C21.5513 15.5607 20.9091 14.7694 19.5217 14.1225ZM28.0594 10.3349H26.1975C25.6238 10.3349 25.1878 10.5 24.9394 11.0887L21.3647 19.6754H23.8903L24.5859 17.8163H27.4116L27.7725 19.6829H30L28.0594 10.3349ZM25.2863 15.9402C25.3351 15.9449 26.2557 12.9055 26.2557 12.9055L26.9889 15.9402C26.9889 15.9402 25.7617 15.9402 25.2863 15.9402ZM8.74603 10.3059L6.3882 16.6716L6.13135 15.4162C5.69538 13.9678 4.32855 12.3938 2.80318 11.6119L4.96225 19.666H7.50856L11.2923 10.307H8.74603V10.3059Z" fill="#2394BC"/>
<path d="M5.33815 11.5149C5.15441 10.8005 4.56842 10.3187 3.77257 10.3084H0.0384557L0 10.4818C2.91287 11.1999 5.35779 13.4095 6.15096 15.488L5.33815 11.5149Z" fill="#EFC75E"/>
</svg>
