<svg width="20" height="20" viewBox="0 0 20 20" fill="none" xmlns="http://www.w3.org/2000/svg">
<g opacity="0.2">
<path d="M9.81258 7.48699C9.32299 7.48179 8.90633 7.48699 8.67195 7.60158C8.5157 7.6771 8.39591 7.84897 8.46883 7.85679C8.55997 7.86981 8.7657 7.91408 8.87508 8.06252C9.0157 8.25262 9.01049 8.68231 9.01049 8.68231C9.01049 8.68231 9.08862 9.8646 8.82039 10.013C8.63549 10.1146 8.38289 9.90887 7.83601 8.96877C7.55737 8.48439 7.34643 7.95054 7.34643 7.95054C7.34643 7.95054 7.30737 7.85158 7.23445 7.79949C7.14591 7.73439 7.02351 7.71356 7.02351 7.71356L5.71883 7.72137C5.71883 7.72137 5.52351 7.72918 5.4532 7.81252C5.3881 7.89064 5.44799 8.04429 5.44799 8.04429C5.44799 8.04429 6.46883 10.4323 7.62508 11.6354C8.68497 12.7396 9.8881 12.6667 9.8881 12.6667H10.435C10.435 12.6667 10.599 12.6485 10.6824 12.5599C10.7605 12.4766 10.7579 12.3203 10.7579 12.3203C10.7579 12.3203 10.7475 11.5886 11.086 11.4792C11.422 11.375 11.849 12.1875 12.3048 12.5C12.6511 12.737 12.9141 12.6849 12.9141 12.6849L14.1329 12.6667C14.1329 12.6667 14.7683 12.6276 14.4662 12.125C14.4428 12.086 14.2917 11.7552 13.5626 11.0781C12.797 10.3698 12.8985 10.4844 13.8204 9.25783C14.3803 8.51043 14.6042 8.0547 14.5339 7.85679C14.4662 7.67189 14.0548 7.72137 14.0548 7.72137L12.6824 7.72918C12.6824 7.72918 12.5808 7.71616 12.5053 7.76043C12.4324 7.8047 12.3855 7.90887 12.3855 7.90887C12.3855 7.90887 12.1667 8.48699 11.8777 8.97918C11.2683 10.0156 11.0209 10.0729 10.922 10.0078C10.6902 9.85679 10.7475 9.40366 10.7475 9.08335C10.7475 8.07554 10.9011 7.65887 10.4506 7.54949C10.3022 7.51304 10.1928 7.4896 9.81258 7.48699Z" fill="black"/>
<mask id="path-3-inside-1" fill="white">
<path fill-rule="evenodd" clip-rule="evenodd" d="M13.3333 3.99999H6.66666C5.1939 3.99999 3.99999 5.1939 3.99999 6.66666V13.3333C3.99999 14.8061 5.1939 16 6.66666 16H13.3333C14.8061 16 16 14.8061 16 13.3333V6.66666C16 5.1939 14.8061 3.99999 13.3333 3.99999ZM6.66666 2.66666C4.45752 2.66666 2.66666 4.45752 2.66666 6.66666V13.3333C2.66666 15.5425 4.45752 17.3333 6.66666 17.3333H13.3333C15.5425 17.3333 17.3333 15.5425 17.3333 13.3333V6.66666C17.3333 4.45752 15.5425 2.66666 13.3333 2.66666H6.66666Z"/>
</mask>
<path fill-rule="evenodd" clip-rule="evenodd" d="M13.3333 3.99999H6.66666C5.1939 3.99999 3.99999 5.1939 3.99999 6.66666V13.3333C3.99999 14.8061 5.1939 16 6.66666 16H13.3333C14.8061 16 16 14.8061 16 13.3333V6.66666C16 5.1939 14.8061 3.99999 13.3333 3.99999ZM6.66666 2.66666C4.45752 2.66666 2.66666 4.45752 2.66666 6.66666V13.3333C2.66666 15.5425 4.45752 17.3333 6.66666 17.3333H13.3333C15.5425 17.3333 17.3333 15.5425 17.3333 13.3333V6.66666C17.3333 4.45752 15.5425 2.66666 13.3333 2.66666H6.66666Z" fill="black"/>
<path d="M6.66666 5.99999H13.3333V1.99999H6.66666V5.99999ZM5.99999 6.66666C5.99999 6.29847 6.29847 5.99999 6.66666 5.99999V1.99999C4.08933 1.99999 1.99999 4.08933 1.99999 6.66666H5.99999ZM5.99999 13.3333V6.66666H1.99999V13.3333H5.99999ZM6.66666 14C6.29847 14 5.99999 13.7015 5.99999 13.3333H1.99999C1.99999 15.9107 4.08933 18 6.66666 18V14ZM13.3333 14H6.66666V18H13.3333V14ZM14 13.3333C14 13.7015 13.7015 14 13.3333 14V18C15.9107 18 18 15.9107 18 13.3333H14ZM14 6.66666V13.3333H18V6.66666H14ZM13.3333 5.99999C13.7015 5.99999 14 6.29847 14 6.66666H18C18 4.08933 15.9107 1.99999 13.3333 1.99999V5.99999ZM4.66666 6.66666C4.66666 5.56209 5.56209 4.66666 6.66666 4.66666V0.666656C3.35295 0.666656 0.666656 3.35295 0.666656 6.66666H4.66666ZM4.66666 13.3333V6.66666H0.666656V13.3333H4.66666ZM6.66666 15.3333C5.56209 15.3333 4.66666 14.4379 4.66666 13.3333H0.666656C0.666656 16.647 3.35295 19.3333 6.66666 19.3333V15.3333ZM13.3333 15.3333H6.66666V19.3333H13.3333V15.3333ZM15.3333 13.3333C15.3333 14.4379 14.4379 15.3333 13.3333 15.3333V19.3333C16.647 19.3333 19.3333 16.647 19.3333 13.3333H15.3333ZM15.3333 6.66666V13.3333H19.3333V6.66666H15.3333ZM13.3333 4.66666C14.4379 4.66666 15.3333 5.56209 15.3333 6.66666H19.3333C19.3333 3.35295 16.647 0.666656 13.3333 0.666656V4.66666ZM6.66666 4.66666H13.3333V0.666656H6.66666V4.66666Z" fill="black" mask="url(#path-3-inside-1)"/>
</g>
</svg>
