<svg width="20" height="20" viewBox="0 0 20 20" fill="none" xmlns="http://www.w3.org/2000/svg">
<g opacity="0.2">
<path d="M10 3.33334C7.48959 3.33334 5.27084 3.59376 3.91668 3.79168C2.79689 3.95574 1.89324 4.79949 1.68751 5.91668C1.51303 6.8672 1.33334 8.25782 1.33334 10C1.33334 11.7422 1.51303 13.1328 1.68751 14.0833C1.89324 15.2005 2.79689 16.0469 3.91668 16.2083C5.27605 16.4063 7.50261 16.6667 10 16.6667C12.4974 16.6667 14.724 16.4063 16.0833 16.2083C17.2031 16.0469 18.1068 15.2005 18.3125 14.0833C18.487 13.1302 18.6667 11.737 18.6667 10C18.6667 8.26303 18.4896 6.8698 18.3125 5.91668C18.1068 4.79949 17.2031 3.95574 16.0833 3.79168C14.7292 3.59376 12.5104 3.33334 10 3.33334ZM10 4.66668C12.4219 4.66668 14.5859 4.91407 15.8958 5.10418C16.4583 5.18751 16.8984 5.61199 17 6.16668C17.1615 7.04689 17.3333 8.35157 17.3333 10C17.3333 11.6458 17.1615 12.9531 17 13.8333C16.8984 14.388 16.4609 14.8151 15.8958 14.8958C14.5807 15.0859 12.4063 15.3333 10 15.3333C7.59376 15.3333 5.41668 15.0859 4.10418 14.8958C3.54168 14.8151 3.10157 14.388 3.00001 13.8333C2.83855 12.9531 2.66668 11.6511 2.66668 10C2.66668 8.34636 2.83855 7.04689 3.00001 6.16668C3.10157 5.61199 3.53907 5.18751 4.10418 5.10418C5.41147 4.91407 7.57814 4.66668 10 4.66668ZM8.00001 6.18751V13.8125L9.00001 13.25L13.6667 10.5833L14.6667 10L13.6667 9.41668L9.00001 6.75001L8.00001 6.18751ZM9.33334 8.47918L11.9792 10L9.33334 11.5208V8.47918Z" fill="black"/>
</g>
</svg>
